<svg width="23" height="24" viewBox="0 0 23 24" fill="none" xmlns="http://www.w3.org/2000/svg">
<path d="M21.125 0.875C21.9883 0.875 22.75 1.63672 22.75 2.55078V22C22.75 22.9141 21.9883 23.625 21.125 23.625H1.57422C0.710938 23.625 0 22.9141 0 22V2.55078C0 1.63672 0.710938 0.875 1.57422 0.875H21.125ZM6.85547 20.375V9.55859H3.50391V20.375H6.85547ZM5.17969 8.03516C6.24609 8.03516 7.10938 7.17188 7.10938 6.10547C7.10938 5.03906 6.24609 4.125 5.17969 4.125C4.0625 4.125 3.19922 5.03906 3.19922 6.10547C3.19922 7.17188 4.0625 8.03516 5.17969 8.03516ZM19.5 20.375V14.4336C19.5 11.5391 18.8398 9.25391 15.4375 9.25391C13.8125 9.25391 12.6953 10.168 12.2383 11.0312H12.1875V9.55859H8.98828V20.375H12.3398V15.043C12.3398 13.6211 12.5938 12.25 14.3711 12.25C16.0977 12.25 16.0977 13.875 16.0977 15.0938V20.375H19.5Z" fill="white"/>
</svg>
