<?xml version="1.0" encoding="utf-8"?>
<svg xmlns="http://www.w3.org/2000/svg" width="180" height="35" viewBox="0 0 180 35" fill="none">
<g clip-path="url(#clip0_1_71)">
<path d="M57.1763 5.92078L51.7082 22.2407L46.2386 5.92078H42.4102L38.8556 25.548H42.056L44.8712 10.1501L50.1221 25.548H53.2943L58.5437 10.1501L61.3603 25.548H64.5594L61.0047 5.92078H57.1763Z" fill="#F2F4F8"/>
<path d="M69.5901 10.041H66.5547V25.548H69.5901V10.041Z" fill="#F2F4F8"/>
<path d="M68.0858 4.53711C67.0472 4.53711 66.2809 5.1331 66.2809 6.1642C66.2809 7.1953 67.0472 7.7913 68.0858 7.7913C69.0693 7.7913 69.9174 7.16732 69.9174 6.1642C69.9174 5.16109 69.0693 4.53711 68.0858 4.53711Z" fill="#F2F4F8"/>
<path d="M80.882 9.76953C78.2573 9.76953 76.4792 10.9349 75.7694 12.86V10.0409H72.7073V25.548H75.7694V17.7399C75.7694 14.3234 76.9731 12.3997 79.9252 12.3997C82.8773 12.3997 84.136 13.9989 84.136 17.3874V25.548H87.1982V17.1439C87.1982 12.2375 85.2015 9.77093 80.882 9.77093V9.76953Z" fill="#F2F4F8"/>
<path d="M102.101 13.0769C101.226 10.9349 99.0108 9.74295 96.5498 9.74295C92.6663 9.74295 89.3854 12.4543 89.3854 17.7945C89.3854 23.1346 92.6945 25.9006 96.5766 25.9006C99.0094 25.9006 101.225 24.6806 102.1 22.5932V25.5214H105.162V4.99878H102.1V13.0769H102.101ZM97.3428 23.2969C94.4175 23.2969 92.449 21.2361 92.449 17.7931C92.449 14.35 94.4175 12.3172 97.2892 12.3172C100.161 12.3172 102.183 14.4046 102.183 17.7931C102.183 21.1816 100.241 23.2969 97.3428 23.2969Z" fill="#F2F4F8"/>
<path d="M111.014 14.2703C111.014 12.9957 112.326 12.264 114.514 12.264C116.181 12.264 117.713 12.9146 118.369 14.0534L121.104 13.3217C120.174 11.1798 117.303 9.77094 114.458 9.77094C110.849 9.77094 108.005 11.5603 108.005 14.2171C108.005 20.7227 118.424 17.4979 118.424 21.0487C118.424 22.4589 117.111 23.2172 114.677 23.2172C112.49 23.2172 110.877 22.4575 110.111 21.0487L107.322 21.8084C108.279 24.2483 111.151 25.8208 114.677 25.8208C118.861 25.8208 121.513 23.9503 121.513 20.9689C121.513 14.5445 111.013 17.7973 111.013 14.2731L111.014 14.2703Z" fill="#F2F4F8"/>
<path d="M130.893 9.74298C126.216 9.74298 122.99 13.0238 122.99 17.7945C122.99 22.5653 126.162 25.846 131.029 25.846C134.556 25.846 137.018 24.3826 138.276 21.509L135.459 21.0753C134.693 22.5667 133.272 23.2984 131.084 23.2984C128.049 23.2984 126.162 21.5901 126.054 18.5808H138.496C138.878 13.3763 135.871 9.74298 130.894 9.74298H130.893ZM126.134 16.1954C126.49 13.512 128.321 12.1563 130.946 12.1563C133.708 12.1563 135.404 13.7289 135.623 16.1954H126.134Z" fill="#F2F4F8"/>
<path d="M147.463 23.3249C145.084 23.3249 144.238 22.2141 144.238 19.0145V12.3998H148.859V10.041H144.238V6.54333L141.147 7.19389V10.041H138.878V12.3998H141.147V19.367C141.147 24.1112 142.979 25.7649 146.999 25.7649C147.655 25.7649 148.53 25.6837 149.131 25.548L148.721 23.1892C148.12 23.2704 147.764 23.3249 147.463 23.3249Z" fill="#F2F4F8"/>
<path d="M164.113 5.92078L155.855 25.548H159.218L160.749 21.6978H170.648L172.208 25.548H175.57L167.286 5.92078H164.113ZM161.763 19.1768L165.7 9.39042L169.637 19.1768H161.761H161.763Z" fill="#F2F4F8"/>
<path d="M180.001 5.92078H176.829V25.548H180.001V5.92078Z" fill="#F2F4F8"/>
<path d="M31.5868 25.7565C31.5868 25.7565 31.5868 25.7495 31.5868 25.7453V25.7425L27.1163 4.98341C27.0514 4.68541 26.8299 4.44338 26.5364 4.35244C26.2429 4.2615 25.9211 4.33425 25.6967 4.54411L14.9961 14.5305L4.30819 0.33857C4.26162 0.277012 4.20518 0.223848 4.1445 0.177679C4.13039 0.166487 4.11627 0.155294 4.10075 0.145501C4.04007 0.104929 3.97657 0.0699524 3.90743 0.0461686C3.89614 0.0419715 3.88485 0.0405724 3.87497 0.0377743C3.81288 0.0181876 3.74938 0.00839429 3.68447 0.0027981C3.66612 0.0027981 3.64919 0 3.63084 0C3.5617 0 3.49114 0.00419715 3.42058 0.0223848C3.41494 0.0223848 3.41071 0.0265819 3.40647 0.027981C3.40365 0.027981 3.40083 0.027981 3.39801 0.027981C3.38954 0.0307791 3.38248 0.0363753 3.37402 0.0391734C3.30769 0.05876 3.24702 0.086741 3.19057 0.120318C3.17505 0.128712 3.16094 0.137107 3.14541 0.1469C3.08473 0.187473 3.0297 0.23504 2.98172 0.289603C2.97184 0.300795 2.96479 0.313387 2.95632 0.324579C2.91681 0.373546 2.88435 0.42671 2.85754 0.484071C2.85049 0.49946 2.84202 0.512052 2.83638 0.527441C2.80815 0.595995 2.78981 0.668745 2.77993 0.742895C2.77993 0.748491 2.7757 0.752688 2.7757 0.758284L0.00140693 27.9684C0.00140693 27.9684 0.00140693 27.9782 0.00140693 27.9838C-0.00141534 28.0159 0.00140693 28.0481 0.00140693 28.0789C0.00140693 28.1027 0.00140693 28.1265 0.0042292 28.1503C0.00705147 28.1782 0.0155183 28.2062 0.0211628 28.2342C0.0268073 28.2594 0.0310407 28.286 0.0380964 28.3111C0.0465632 28.3363 0.0592634 28.3601 0.0691414 28.3853C0.0804304 28.4119 0.0903084 28.4385 0.10442 28.4622C0.115709 28.4832 0.131231 28.5028 0.145343 28.5224C0.163687 28.549 0.180621 28.5756 0.200377 28.5994C0.203199 28.6035 0.206021 28.6077 0.210255 28.6119C0.222955 28.6273 0.238477 28.6371 0.252589 28.6511C0.275167 28.6735 0.296334 28.6945 0.321734 28.7141C0.342901 28.7309 0.36548 28.7449 0.388058 28.7588C0.412047 28.7742 0.436036 28.7896 0.461437 28.8036C0.486837 28.8162 0.512237 28.826 0.539049 28.8358C0.564449 28.8456 0.58985 28.8568 0.61525 28.8638C0.644884 28.8722 0.675929 28.8764 0.705563 28.882C0.725319 28.8848 0.743663 28.8918 0.763419 28.8932C0.769064 28.8932 0.774708 28.8932 0.778942 28.8932C0.809987 28.8959 0.841032 28.8932 0.872077 28.8932C0.897477 28.8932 0.922877 28.8932 0.946867 28.8904C0.975089 28.8876 1.0019 28.8792 1.02871 28.8736C1.05552 28.868 1.08234 28.8638 1.10774 28.8554C1.13314 28.847 1.15571 28.8358 1.18111 28.8246C1.20793 28.8134 1.23474 28.8036 1.26014 28.7896C1.28131 28.7784 1.30106 28.763 1.32082 28.749C1.34763 28.7309 1.37444 28.7141 1.39843 28.6931C1.40266 28.6903 1.4069 28.6875 1.41113 28.6833L8.2001 22.7541L11.0901 34.355C11.0929 34.3648 11.0972 34.3746 11.1014 34.3844C11.1099 34.4138 11.1211 34.4418 11.1324 34.4698C11.1423 34.4935 11.1522 34.5187 11.1649 34.5411C11.1776 34.5649 11.1931 34.5887 11.2072 34.6125C11.2227 34.6362 11.2383 34.66 11.2566 34.681C11.2721 34.7006 11.2905 34.7188 11.3088 34.737C11.33 34.7594 11.3526 34.7803 11.3766 34.7999C11.385 34.8069 11.3907 34.8139 11.3991 34.8209C11.4118 34.8307 11.4245 34.8363 11.4372 34.8447C11.4626 34.8615 11.488 34.8783 11.5134 34.8923C11.5374 34.9049 11.5614 34.9161 11.5854 34.9272C11.6108 34.9384 11.6376 34.9482 11.6644 34.9566C11.6912 34.965 11.7166 34.972 11.7435 34.9776C11.7703 34.9832 11.7985 34.9874 11.8253 34.9902C11.8535 34.993 11.8803 34.9944 11.9071 34.9944C11.934 34.9944 11.9608 34.9944 11.989 34.9916C12.0186 34.9888 12.0483 34.9846 12.0765 34.979C12.092 34.9762 12.1075 34.9762 12.123 34.972C12.1329 34.9692 12.1428 34.965 12.1527 34.9608C12.1823 34.9524 12.2105 34.9412 12.2388 34.93C12.2628 34.9203 12.2882 34.9105 12.3107 34.8979C12.3347 34.8853 12.3587 34.8699 12.3827 34.8559C12.4067 34.8405 12.4307 34.8251 12.4518 34.8069C12.4716 34.7915 12.4899 34.7734 12.5083 34.7552C12.5309 34.7342 12.552 34.7118 12.5718 34.688C12.5788 34.6796 12.5873 34.674 12.593 34.6656L18.754 26.7596H30.7472C30.7472 26.7596 30.7528 26.7596 30.7543 26.7596C30.8149 26.7596 30.8742 26.7526 30.9335 26.74C30.9405 26.7386 30.9476 26.7358 30.9546 26.733C31.0054 26.7204 31.0548 26.7036 31.1028 26.6813C31.1169 26.6743 31.131 26.6659 31.1451 26.6575C31.1832 26.6379 31.2199 26.6155 31.2552 26.5903C31.2721 26.5777 31.2877 26.5637 31.3032 26.5497C31.3314 26.5246 31.3596 26.4994 31.385 26.47C31.3935 26.4616 31.402 26.4546 31.4104 26.4462C31.4189 26.4364 31.4245 26.4238 31.4316 26.4126C31.4415 26.3986 31.4542 26.3875 31.4641 26.3721C31.4739 26.3553 31.481 26.3385 31.4894 26.3217C31.5007 26.3007 31.512 26.2797 31.5219 26.2587C31.5388 26.2224 31.5515 26.186 31.5614 26.1482C31.5671 26.13 31.5727 26.1118 31.5769 26.0923C31.5868 26.0503 31.5911 26.0069 31.5939 25.9635C31.5939 25.9468 31.5981 25.9314 31.5981 25.9146C31.5981 25.8586 31.5925 25.8041 31.5826 25.7495L31.5868 25.7565ZM12.3263 32.2537L9.95696 22.7401L17.0423 26.2028L12.3263 32.2537ZM14.9637 16.8529L19.746 19.9043L17.8861 24.7282L10.2307 20.9871L14.9637 16.8529ZM16.2633 15.6693L24.2532 8.21381L20.3683 18.2898L16.2633 15.6693ZM9.18648 19.644L5.46391 4.6994L13.7289 15.6763L9.18648 19.644ZM21.2122 20.8388L27.8501 25.0751H19.5795L21.2122 20.8388ZM29.4899 24.1084L21.8359 19.2243L26.0721 8.2362L29.4899 24.1098V24.1084ZM1.91914 25.9915L3.97657 5.79066L7.74148 20.9074L1.91773 25.9943L1.91914 25.9915Z" fill="#F2F4F8"/>
</g>
<defs>
<clipPath id="clip0_1_71">
<rect width="180" height="35" fill="white"/>
</clipPath>
</defs>
</svg>