<svg width="29" height="20" viewBox="0 0 29 20" fill="none" xmlns="http://www.w3.org/2000/svg">
<path d="M27.8789 3.59766C28.4883 5.73047 28.4883 10.3008 28.4883 10.3008C28.4883 10.3008 28.4883 14.8203 27.8789 17.0039C27.5742 18.2227 26.6094 19.1367 25.4414 19.4414C23.2578 20 14.625 20 14.625 20C14.625 20 5.94141 20 3.75781 19.4414C2.58984 19.1367 1.625 18.2227 1.32031 17.0039C0.710938 14.8203 0.710938 10.3008 0.710938 10.3008C0.710938 10.3008 0.710938 5.73047 1.32031 3.59766C1.625 2.37891 2.58984 1.41406 3.75781 1.10938C5.94141 0.5 14.625 0.5 14.625 0.5C14.625 0.5 23.2578 0.5 25.4414 1.10938C26.6094 1.41406 27.5742 2.37891 27.8789 3.59766ZM11.7812 14.4141L18.9922 10.3008L11.7812 6.1875V14.4141Z" fill="white"/>
</svg>
