<svg width="50" height="32" viewBox="0 0 50 32" fill="none"
	xmlns="http://www.w3.org/2000/svg">
	<g clip-path="url(#clip0_12575_50971)">
		<path d="M0 0H50V32H0V0Z" fill="#2675EA"/>
		<path d="M25 4.625C22.7502 4.625 20.551 5.29213 18.6804 6.54203C16.8098 7.79193 15.3518 9.56847 14.4909 11.647C13.6299 13.7255 13.4047 16.0126 13.8436 18.2192C14.2825 20.4257 15.3658 22.4525 16.9567 24.0433C18.5475 25.6342 20.5743 26.7175 22.7809 27.1564C24.9874 27.5953 27.2745 27.3701 29.353 26.5091C31.4315 25.6482 33.2081 24.1902 34.458 22.3196C35.7079 20.449 36.375 18.2498 36.375 16C36.3718 12.9841 35.1724 10.0927 33.0398 7.96018C30.9073 5.82764 28.0159 4.62818 25 4.625ZM25 25.625C23.0964 25.625 21.2355 25.0605 19.6526 24.0029C18.0698 22.9453 16.8362 21.4421 16.1077 19.6833C15.3792 17.9246 15.1886 15.9893 15.5599 14.1223C15.9313 12.2552 16.848 10.5402 18.1941 9.1941C19.5402 7.84802 21.2552 6.93132 23.1223 6.55994C24.9893 6.18856 26.9246 6.37917 28.6833 7.10766C30.4421 7.83615 31.9453 9.06981 33.0029 10.6526C34.0605 12.2355 34.625 14.0964 34.625 16C34.6221 18.5518 33.6071 20.9983 31.8027 22.8027C29.9983 24.6071 27.5518 25.6221 25 25.625ZM23.25 10.75C23.25 10.4039 23.3526 10.0655 23.5449 9.77775C23.7372 9.48997 24.0105 9.26566 24.3303 9.13321C24.6501 9.00076 25.0019 8.9661 25.3414 9.03363C25.6809 9.10115 25.9927 9.26782 26.2374 9.51256C26.4822 9.75731 26.6489 10.0691 26.7164 10.4086C26.7839 10.7481 26.7492 11.0999 26.6168 11.4197C26.4843 11.7395 26.26 12.0128 25.9723 12.2051C25.6845 12.3974 25.3461 12.5 25 12.5C24.5359 12.5 24.0908 12.3156 23.7626 11.9874C23.4344 11.6592 23.25 11.2141 23.25 10.75ZM31.125 14.25C31.125 14.4821 31.0328 14.7046 30.8687 14.8687C30.7046 15.0328 30.4821 15.125 30.25 15.125H25.875V16.6103L29.2284 21.6416C29.3572 21.8348 29.404 22.0712 29.3585 22.2989C29.3129 22.5266 29.1788 22.7268 28.9856 22.8556C28.7924 22.9844 28.556 23.0312 28.3283 22.9857C28.1006 22.9401 27.9004 22.806 27.7716 22.6128L25 18.4566L22.2284 22.6128C22.1647 22.7085 22.0827 22.7906 21.9872 22.8546C21.8916 22.9186 21.7844 22.9631 21.6717 22.9857C21.444 23.0312 21.2076 22.9844 21.0144 22.8556C20.8212 22.7268 20.6871 22.5266 20.6415 22.2989C20.596 22.0712 20.6428 21.8348 20.7716 21.6416L24.125 16.6103V15.125H19.75C19.5179 15.125 19.2954 15.0328 19.1313 14.8687C18.9672 14.7046 18.875 14.4821 18.875 14.25C18.875 14.0179 18.9672 13.7954 19.1313 13.6313C19.2954 13.4672 19.5179 13.375 19.75 13.375H30.25C30.4821 13.375 30.7046 13.4672 30.8687 13.6313C31.0328 13.7954 31.125 14.0179 31.125 14.25Z" fill="white"/>
	</g>
	<defs>
		<clipPath id="clip0_12575_50971">
			<path d="M0 4C0 1.79086 1.79086 0 4 0H46C48.2091 0 50 1.79086 50 4V28C50 30.2091 48.2091 32 46 32H4C1.79086 32 0 30.2091 0 28V4Z" fill="white"/>
		</clipPath>
	</defs>
</svg>
