<svg width="50" height="32" viewBox="0 0 50 32" fill="none"
	xmlns="http://www.w3.org/2000/svg">
	<g clip-path="url(#clip0_12575_50959)">
		<rect width="50" height="32" fill="#2A3086"/>
		<rect width="50" height="6" fill="#019966"/>
		<rect y="26" width="50" height="6" fill="#019966"/>
		<rect y="25" width="50" height="1" fill="black"/>
		<rect y="6" width="50" height="1" fill="black"/>
		<path d="M25.6072 16.2435L24.9997 14.328L24.3943 16.2435L22.3851 16.2279L24.0196 17.3954L23.3836 19.3017L24.9997 18.1087L26.6157 19.3017L25.9812 17.3954L27.615 16.2279L25.6072 16.2435Z" fill="white"/>
		<path d="M25.8772 8.76805L25.8822 8.78438L25 11.7631L24.1228 8.76805C14.6743 10.7893 18.9433 18.9958 20.0753 21.1448L17.7794 23L21.8439 21.5813V16.2236C21.8439 14.482 23.2548 13.0704 24.9972 13.0704C26.7388 13.0704 28.1505 14.482 28.1505 16.2236L28.1561 21.5813L32.2207 23L29.9262 21.1448C31.0568 18.9958 35.3264 10.7893 25.8772 8.76805Z" fill="white"/>
	</g>
	<defs>
		<clipPath id="clip0_12575_50959">
			<path d="M0 4C0 1.79086 1.79086 0 4 0H46C48.2091 0 50 1.79086 50 4V28C50 30.2091 48.2091 32 46 32H4C1.79086 32 0 30.2091 0 28V4Z" fill="white"/>
		</clipPath>
	</defs>
</svg>
